- 
http://www.Speed.Cd 
       
http://www.Speed.Cd      fast  and The Hottest Private Tracker on the net

(((--Submit for invite!!--)))

Please Seed back to make the speed Faster!!!

------------------nfo--------------------------
-[IMG]http://img834.imageshack.us/img834/6018/3807921.jpg[/IMG]


[color=blue][size=5][b]Faces.in.the.Crowd.2011.BDRip.XVID.AC3.HQ.Hive-CM8[/b][/size][/color]


[b]Thx Hive

CM8 Doing It Right The First Time :D


Source: Bluray

Video: 720x304 @bitrate 1800 2pass
Audio: TrueHD AC3 640 to AC3 5.1 @448
Sample: yes included
Subs: yes english in srt /subs[/b]


[url]http://www.imdb.com/title/tt1536410/[/url]


General
Complete name                    : Faces.in.the.Crowd.2011.BDRip.XVID.AC3.HQ.Hive-CM8.avi
Format                           : AVI
Format/Info                      : Audio Video Interleave
File size                        : 1.62 GiB
Duration                         : 1h 42mn
Overall bit rate                 : 2 268 Kbps
Writing application              : Nandub v1.0rc2
Writing library                  : Nandub build 1853/release

Video
ID                               : 0
Format                           : MPEG-4 Visual
Format profile                   : Advanced Simple@L5
Format settings, BVOP            : 1
Format settings, QPel            : Yes
Format settings, GMC             : No warppoints
Format settings, Matrix          : Default (H.263)
Muxing mode                      : Packed bitstream
Codec ID                         : XVID
Codec ID/Hint                    : XviD
Duration                         : 1h 42mn
Bit rate                         : 1 810 Kbps
Width                            : 720 pixels
Height                           : 304 pixels
Display aspect ratio             : 2.35:1
Frame rate                       : 23.976 fps
Color space                      : YUV
Chroma subsampling               : 4:2:0
Bit depth                        : 8 bits
Scan type                        : Progressive
Compression mode                 : Lossy
Bits/(Pixel*Frame)               : 0.345
Stream size                      : 1.30 GiB (80%)
Writing library                  : XviD 1.2.1 (UTC 2008-12-04)

Audio
ID                               : 1
Format                           : AC-3
Format/Info                      : Audio Coding 3
Mode extension                   : CM (complete main)
Codec ID                         : 2000
Duration                         : 1h 42mn
Bit rate mode                    : Constant
Bit rate                         : 448 Kbps
Channel(s)                       : 6 channels
Channel positions                : Front: L C R, Side: L R, LFE
Sampling rate                    : 48.0 KHz
Bit depth                        : 16 bits
Compression mode                 : Lossy
Stream size                      : 329 MiB (20%)
Alignment                        : Split accross interleaves
Interleave, duration             : 42 ms (1.00 video frame)
Interleave, preload duration     : 500 ms



Plot:

A horror-thriller centered on a woman living with "face-blindness" after surviving a serial killer's attack. 
As she lives with her condition, one in which facial features change each time she loses sight of them, the killer closes in. 


Cast:

Milla Jovovich	... 	Anna Marchant
Sarah Wayne Callies	... 	Francine
Julian McMahon	... 	Kerrest
Adam Harrington	... 	Bryce #8 (as Adam John Harrington)
Michael Shanks	... 	Bryce


[img]http://img98.imageshack.us/img98/9014/fafafafafafafafafa.png[/img]
[img]http://img84.imageshack.us/img84/3883/69674589.png[/img]
[img]http://img585.imageshack.us/img585/8691/fafad.png[/img]
[img]http://img802.imageshack.us/img802/7726/fafafa.png[/img]
[img]http://img194.imageshack.us/img194/2644/fafafafa.png[/img]
[img]http://img440.imageshack.us/img440/2145/fafafafafa.png[/img]
[img]http://img17.imageshack.us/img17/2600/fafafafafafa.png[/img]
[img]http://img72.imageshack.us/img72/5669/fafafafafafafa.png[/img]
[img]http://img11.imageshack.us/img11/571/fafafafafafafafa.png[/img]



Greetz

ViSiON,SiC,SANTi,3LT0N,YanKeeS,MAGNET,THC,T0XiC,LKRG,FANTASIA-PLAY,FANTASIA-M,FLAWL3SS,
D2U,WBZ,BHRG,NOVA,Vik,Rapeseed,SAFC,goldadvance,MEMORY100,KaN1vE,Unevano,Pinnz,Wayne
Mr Hive,cedrict wink,and all P2P groups
Great Work Guys :D

LOOKING FOR ANYTHING YOU WANT TO LOOK AND SOUND BETTER

CM8@hushmail.com